<svg width="329" height="63" viewBox="0 0 329 63" fill="none" xmlns="http://www.w3.org/2000/svg">
<path d="M249.741 10.6326H252.36V24.875H252.498C253.08 23.5579 253.968 22.5166 255.162 21.7508C256.357 20.9545 257.858 20.5563 259.665 20.5563C262.697 20.5563 265.071 21.6283 266.786 23.7723C268.501 25.9164 269.359 28.9486 269.359 32.8691C269.359 36.7896 268.501 39.8218 266.786 41.9659C265.071 44.1099 262.697 45.1819 259.665 45.1819C257.858 45.1819 256.372 44.799 255.208 44.0333C254.044 43.237 253.141 42.1803 252.498 40.8632H252.36V44.6306H249.741V10.6326ZM259.067 42.8388C261.426 42.8388 263.264 42.0884 264.581 40.5876C265.898 39.0867 266.556 37.0652 266.556 34.5231V31.2151C266.556 28.6729 265.898 26.6514 264.581 25.1506C263.264 23.6498 261.426 22.8994 259.067 22.8994C258.149 22.8994 257.276 23.0372 256.449 23.3129C255.652 23.5579 254.948 23.9102 254.335 24.3696C253.723 24.829 253.233 25.3803 252.865 26.0236C252.528 26.6668 252.36 27.3712 252.36 28.1369V37.4634C252.36 38.2904 252.528 39.0408 252.865 39.7146C253.233 40.3578 253.723 40.9245 254.335 41.4145C254.948 41.874 255.652 42.2262 256.449 42.4712C257.276 42.7163 258.149 42.8388 259.067 42.8388Z" fill="#135359"/>
<path d="M277.704 44.6306C276.755 44.6306 276.035 44.3702 275.545 43.8495C275.055 43.3288 274.81 42.6397 274.81 41.7821V10.6326H277.429V42.3334H281.058V44.6306H277.704Z" fill="#135359"/>
<path d="M293.973 45.1819C292.411 45.1819 291.002 44.9062 289.746 44.3549C288.49 43.8036 287.418 43.0072 286.53 41.9659C285.642 40.8938 284.953 39.5921 284.462 38.0607C283.972 36.5292 283.727 34.7987 283.727 32.8691C283.727 30.9395 283.972 29.2243 284.462 27.7235C284.953 26.192 285.642 24.9056 286.53 23.8642C287.418 22.7922 288.49 21.9805 289.746 21.4292C291.002 20.8473 292.411 20.5563 293.973 20.5563C295.535 20.5563 296.944 20.8473 298.199 21.4292C299.455 21.9805 300.527 22.7922 301.416 23.8642C302.304 24.9056 302.993 26.192 303.483 27.7235C303.973 29.2243 304.218 30.9395 304.218 32.8691C304.218 34.7987 303.973 36.5292 303.483 38.0607C302.993 39.5921 302.304 40.8938 301.416 41.9659C300.527 43.0072 299.455 43.8036 298.199 44.3549C296.944 44.9062 295.535 45.1819 293.973 45.1819ZM293.973 42.8388C296.27 42.8388 298.077 42.119 299.394 40.6794C300.742 39.2399 301.416 37.1265 301.416 34.3393V31.3989C301.416 28.6423 300.742 26.5442 299.394 25.1047C298.077 23.6345 296.27 22.8994 293.973 22.8994C291.676 22.8994 289.853 23.6192 288.505 25.0587C287.188 26.4983 286.53 28.6117 286.53 31.3989V34.3393C286.53 37.0959 287.188 39.2093 288.505 40.6794C289.853 42.119 291.676 42.8388 293.973 42.8388Z" fill="#135359"/>
<path d="M328.854 47.3872C328.854 49.7762 327.89 51.5374 325.96 52.6706C324.061 53.8039 321.258 54.3705 317.552 54.3705C313.969 54.3705 311.381 53.8498 309.788 52.8085C308.195 51.7671 307.399 50.3275 307.399 48.4898C307.399 47.1421 307.751 46.0701 308.456 45.2738C309.16 44.4774 310.155 43.8955 311.442 43.5279V43.1604C309.972 42.5784 309.237 41.5064 309.237 39.9444C309.237 38.7805 309.619 37.8922 310.385 37.2796C311.151 36.6671 312.1 36.2076 313.234 35.9013V35.7176C311.855 35.105 310.783 34.1861 310.018 32.961C309.252 31.7358 308.869 30.2656 308.869 28.5504C308.869 27.3559 309.068 26.2686 309.466 25.2885C309.864 24.3083 310.431 23.466 311.166 22.7616C311.932 22.0571 312.835 21.5211 313.877 21.1536C314.949 20.7554 316.128 20.5563 317.414 20.5563C319.222 20.5563 320.799 20.9392 322.147 21.7049V20.5563C322.147 19.8518 322.315 19.2852 322.652 18.8564C322.989 18.397 323.54 18.1673 324.306 18.1673H328.349V20.4644H323.571V22.7156C324.367 23.4201 324.98 24.2777 325.409 25.2885C325.837 26.2686 326.052 27.3559 326.052 28.5504C326.052 29.745 325.837 30.8323 325.409 31.8124C325.01 32.7925 324.428 33.6501 323.663 34.3852C322.928 35.0897 322.024 35.641 320.952 36.0392C319.911 36.4067 318.747 36.5905 317.46 36.5905C317.032 36.5905 316.618 36.5599 316.22 36.4986C315.822 36.4374 315.424 36.3761 315.025 36.3148C314.015 36.5905 313.172 36.9734 312.499 37.4634C311.855 37.9228 311.534 38.5507 311.534 39.3471C311.534 40.756 312.79 41.4605 315.301 41.4605H320.768C323.617 41.4605 325.669 41.9965 326.925 43.0685C328.211 44.1099 328.854 45.5494 328.854 47.3872ZM326.327 47.5709C326.327 46.4377 325.914 45.5341 325.087 44.8603C324.291 44.2171 322.851 43.8955 320.768 43.8955H313.142C312.131 44.2324 311.335 44.7378 310.753 45.4116C310.171 46.0854 309.88 46.9277 309.88 47.9385C309.88 49.1636 310.385 50.1744 311.396 50.9707C312.407 51.7977 313.938 52.2112 315.99 52.2112H318.931C321.228 52.2112 323.035 51.8283 324.352 51.0626C325.669 50.3275 326.327 49.1636 326.327 47.5709ZM317.46 34.4771C319.268 34.4771 320.676 34.033 321.687 33.1448C322.729 32.2259 323.249 30.9395 323.249 29.2855V27.8153C323.249 26.192 322.729 24.9362 321.687 24.048C320.676 23.1291 319.268 22.6697 317.46 22.6697C315.623 22.6697 314.198 23.1291 313.188 24.048C312.177 24.9362 311.672 26.192 311.672 27.8153V29.2855C311.672 30.9395 312.177 32.2259 313.188 33.1448C314.229 34.033 315.653 34.4771 317.46 34.4771Z" fill="#135359"/>
<path fill-rule="evenodd" clip-rule="evenodd" d="M109.238 44.1929C108.901 44.1929 108.628 43.9234 108.628 43.5922V30.7284C108.628 26.2728 107.327 24.9448 104.582 24.9448C101.835 24.9448 100.486 26.2728 100.486 30.5864V43.5922C100.486 43.9234 100.213 44.1929 99.8755 44.1929H94.4476C94.111 44.1929 93.838 43.9234 93.838 43.5922V30.7284C93.838 26.2728 92.5362 24.9448 89.7901 24.9448C87.044 24.9448 85.6952 26.2728 85.6952 30.5864V43.5922C85.6952 43.9234 85.4222 44.1929 85.0856 44.1929H79.6568C79.3194 44.1929 79.0464 43.9234 79.0464 43.5922V19.959C79.0464 19.597 79.345 19.3039 79.7129 19.3039H85.0287C85.3974 19.3039 85.6952 19.597 85.6952 19.959V20.9631C86.8517 19.7772 88.5857 18.782 91.2354 18.782C94.4633 18.782 96.3424 19.6822 98.2216 21.9583C99.9564 20.2042 102.076 18.782 106.267 18.782C112.723 18.782 115.276 23.1435 115.276 30.1602V43.5922C115.276 43.9234 115.003 44.1929 114.665 44.1929H109.238" fill="#135359"/>
<path fill-rule="evenodd" clip-rule="evenodd" d="M134.921 33.4621C133.754 32.7649 132.638 32.4394 130.257 32.4394C127.731 32.4394 126.371 33.5552 126.371 35.5074C126.371 37.2273 127.391 38.7609 130.257 38.7609C132.443 38.7609 134.193 37.692 134.921 36.5301V33.4621ZM135.537 43.6822C135.197 43.6822 134.921 43.4181 134.921 43.0936V42.0555C133.706 43.2638 131.569 44.1929 129.189 44.1929C124.428 44.1929 119.667 41.4057 119.667 35.506C119.667 30.1169 124.234 27.422 130.015 27.422C132.347 27.422 133.852 27.8873 134.921 28.398V27.1897C134.921 25.4716 133.706 24.0772 131.277 24.0772C128.457 24.0772 126.874 24.4327 124.818 25.4342C124.52 25.579 124.153 25.4803 123.992 25.2003L122.005 21.7585C121.841 21.4737 121.95 21.1094 122.248 20.9535C124.981 19.5186 127.402 18.782 131.277 18.782C137.446 18.782 141.625 21.8476 141.625 27.3297V43.0936C141.625 43.4181 141.349 43.6822 141.01 43.6822H135.537V43.6822Z" fill="#135359"/>
<path fill-rule="evenodd" clip-rule="evenodd" d="M161.779 42.7014C159.072 44.8316 156.961 45.2978 154.961 45.2978C150.807 45.2978 148.12 42.1112 148.12 37.6699V25.1617H144.439C144.098 25.1617 143.82 24.8881 143.82 24.55V20.0334C143.82 19.6961 144.098 19.4225 144.439 19.4225H148.12V16.6013C148.12 16.0376 148.37 15.5019 148.804 15.1374L153.41 11.2581C153.981 10.7762 154.862 11.178 154.862 11.9203V19.4225H162.024C162.357 19.4225 162.579 19.7606 162.444 20.0615L160.326 24.7699C160.218 25.0079 159.979 25.1617 159.715 25.1617H154.862V35.896C154.862 38.3097 155.742 38.9379 157.354 38.9379C158.047 38.9379 158.645 38.7668 159.336 38.3642C159.65 38.1816 160.056 38.3006 160.212 38.6263L161.966 41.9013C162.097 42.1766 162.02 42.5122 161.779 42.7014Z" fill="#135359"/>
<path fill-rule="evenodd" clip-rule="evenodd" d="M175.411 44.1929C168.823 44.1929 163.582 38.9899 163.582 31.5105C163.582 24.031 168.678 18.782 175.699 18.782C180.297 18.782 183.312 20.8628 185.416 23.7662C185.584 23.9976 185.551 24.3166 185.345 24.5178L181.698 28.0806C181.502 28.2715 181.178 28.2429 181.012 28.0273C179.608 26.2073 178.06 24.9601 175.555 24.9601C172.381 24.9601 170.314 27.5158 170.314 31.5105C170.314 35.4129 172.381 38.0147 175.555 38.0147C177.996 38.0147 179.588 37.0292 181.208 35.2506C181.378 35.0645 181.673 35.043 181.86 35.214L185.347 38.391C185.575 38.5994 185.605 38.9446 185.411 39.1832C183.029 42.1184 180.184 44.1929 175.411 44.1929" fill="#135359"/>
<path fill-rule="evenodd" clip-rule="evenodd" d="M205.839 44.1929C205.501 44.1929 205.228 43.9198 205.228 43.5842V30.5492C205.228 26.0342 203.684 24.6885 200.933 24.6885C198.183 24.6885 196.591 26.0342 196.591 30.4053V43.5842C196.591 43.9198 196.317 44.1929 195.979 44.1929H190.541C190.204 44.1929 189.931 43.9198 189.931 43.5842V14.3647C189.931 13.8037 190.177 13.2715 190.606 12.9071L195.155 9.04685C195.721 8.56813 196.591 8.96789 196.591 9.70654V20.6539C197.748 19.4522 199.871 18.4437 202.526 18.4437C208.993 18.4437 211.888 22.8633 211.888 29.9734V43.5842C211.888 43.9198 211.614 44.1929 211.276 44.1929H205.839" fill="#135359"/>
<path fill-rule="evenodd" clip-rule="evenodd" d="M230.434 33.4621C229.27 32.7649 228.152 32.4394 225.771 32.4394C223.245 32.4394 221.884 33.5552 221.884 35.5074C221.884 37.2273 222.905 38.7609 225.771 38.7609C227.957 38.7609 229.706 37.692 230.434 36.5301V33.4621ZM231.049 43.6822C230.71 43.6822 230.434 43.4181 230.434 43.0936V42.0555C229.22 43.2638 227.083 44.1929 224.703 44.1929C219.942 44.1929 215.181 41.4057 215.181 35.506C215.181 30.1169 219.749 27.422 225.528 27.422C227.86 27.422 229.366 27.8873 230.434 28.398V27.1897C230.434 25.4716 229.22 24.0772 226.791 24.0772C223.97 24.0772 222.388 24.4327 220.332 25.4342C220.035 25.579 219.668 25.4803 219.506 25.2003L217.519 21.7585C217.355 21.4737 217.464 21.1094 217.761 20.9535C220.495 19.5186 222.916 18.782 226.791 18.782C232.961 18.782 237.139 21.8476 237.139 27.3297V43.0936C237.139 43.4181 236.863 43.6822 236.523 43.6822H231.049V43.6822Z" fill="#135359"/>
<path fill-rule="evenodd" clip-rule="evenodd" d="M25.3944 20.0693L26.7984 11.3148C28.1098 12.7818 29.3625 14.3239 30.5508 15.9394C33.8124 20.3738 36.3882 25.094 38.2995 29.9757C38.4491 30.3586 38.9548 30.4402 39.2159 30.121L40.0431 29.1128C40.4736 28.5879 40.6224 27.885 40.4249 27.2385C39.306 23.5666 37.8425 19.96 36.051 16.4562C36.0518 16.4513 36.0518 16.4472 36.0518 16.4423C37.3484 14.6431 38.7242 12.9328 40.1712 11.3148L41.5743 20.0693C41.6206 20.3583 41.895 20.5551 42.1875 20.5094L51.0493 19.1224C50.0419 20.8081 48.9446 22.4621 47.7563 24.0776C44.4955 28.5112 40.748 32.3896 36.6394 35.6934C36.3171 35.953 36.3948 36.4542 36.7832 36.602L38.0078 37.0665C38.6457 37.309 39.3688 37.2314 39.9299 36.8461C43.1196 34.6599 46.1391 32.1709 48.9594 29.4051C48.9636 29.4043 48.9677 29.4035 48.9726 29.4018C50.727 29.9463 52.44 30.5594 54.1084 31.2386C54.534 31.4117 54.553 32.0035 54.1423 32.2092L47.1869 35.7105C46.9233 35.8436 46.8184 36.162 46.953 36.4224L51.0261 44.3206C49.0925 43.8952 47.1613 43.3744 45.2392 42.7581C39.9621 41.0642 35.0701 38.7416 30.6202 35.9024C30.2715 35.6795 29.8121 35.9081 29.7906 36.3179L29.7212 37.6118C29.6856 38.2869 29.9831 38.9417 30.5277 39.3506C33.6182 41.6715 36.9476 43.7393 40.4811 45.5337C40.4844 45.5377 40.486 45.541 40.4893 45.5459C40.5108 47.7541 40.4158 49.9362 40.2075 52.0857L33.8628 45.8177C33.6546 45.6112 33.315 45.6112 33.1059 45.8177L26.7612 52.0857C26.5736 50.137 26.4769 48.1623 26.4769 46.1647C26.4769 40.6846 27.2008 35.3701 28.5593 30.312C28.6659 29.9145 28.3048 29.5545 27.9032 29.6606L26.6356 29.9953C25.9753 30.17 25.4374 30.6525 25.2118 31.29C23.9317 34.9113 22.9707 38.678 22.3344 42.5532C22.3311 42.5573 22.3286 42.5597 22.3253 42.5638C20.2066 43.2667 18.0762 43.8512 15.9434 44.3206L20.0165 36.4224C20.1504 36.162 20.0454 35.8436 19.7818 35.7105L11.7877 31.6868C13.6048 30.908 15.4765 30.2076 17.3994 29.5904C22.6765 27.8965 28.0164 26.934 33.3067 26.6483C33.7215 26.6254 33.9562 26.1756 33.7298 25.8311L33.015 24.7429C32.6423 24.1756 32.0118 23.8188 31.3284 23.8049C27.447 23.7217 23.5235 23.9821 19.5967 24.5821C19.5918 24.5805 19.5884 24.5788 19.5835 24.5772C18.2514 22.8033 17.0309 20.982 15.9203 19.1224L24.7821 20.5094C25.0746 20.5551 25.3481 20.3583 25.3944 20.0693ZM14.3949 25.5781C12.5877 26.0001 10.7829 26.4891 8.98564 27.0663C5.97194 28.0336 3.07392 29.1912 0.301519 30.5202C-0.0992614 30.7129 -0.100088 31.2794 0.296561 31.4786L13.495 38.1221L6.76936 51.1616C6.56774 51.5526 6.90571 52.0114 7.34368 51.9338C10.378 51.3991 13.4107 50.653 16.4253 49.6848C18.2226 49.1084 19.9736 48.4562 21.6866 47.7476C21.5338 49.5762 21.4478 51.4228 21.4478 53.2898C21.4478 56.4205 21.666 59.5014 22.0891 62.5169C22.1502 62.9521 22.6956 63.1284 23.0105 62.8174L33.4845 52.4702L43.9584 62.8174C44.2741 63.1284 44.8187 62.9529 44.8798 62.5169C45.3029 59.5014 45.5219 56.4205 45.5219 53.2898C45.5219 51.4228 45.4351 49.5762 45.2823 47.7484C46.9953 48.4562 48.7471 49.1084 50.5436 49.6848C53.5582 50.653 56.5909 51.3991 59.6252 51.9338C60.064 52.0114 60.402 51.5526 60.1995 51.1616L53.4747 38.1221L66.6732 31.4786C67.0698 31.2794 67.069 30.7129 66.6682 30.5202C63.8958 29.1912 60.997 28.0336 57.9833 27.0663C56.186 26.4891 54.3812 26.0001 52.5748 25.5789C53.7854 24.1886 54.9539 22.7445 56.0653 21.2335C57.9279 18.7003 59.5839 16.0815 61.0358 13.3965C61.2457 13.0088 60.9094 12.5492 60.4698 12.6186L45.8392 14.9076L43.5221 0.45417C43.4519 0.0198735 42.9065 -0.154825 42.5974 0.161918C40.4613 2.35626 38.4516 4.72122 36.5882 7.25434C35.4776 8.76458 34.4488 10.3099 33.4845 11.8765C32.5201 10.3099 31.4913 8.76458 30.3807 7.25434C28.5181 4.72122 26.5084 2.35626 24.3715 0.161918C24.0632 -0.154825 23.517 0.0198735 23.4476 0.45417L21.1305 14.9076L6.49997 12.6186C6.06036 12.5492 5.72321 13.0088 5.9331 13.3965C7.385 16.0815 9.041 18.7003 10.9044 21.2335C12.015 22.7445 13.1843 24.1878 14.3949 25.5781V25.5781Z" fill="#67B54B"/>
</svg>
