<svg width="30" height="30" viewBox="0 0 30 30" fill="none" xmlns="http://www.w3.org/2000/svg">
<path d="M18.1503 15L28.5906 4.55971C29.4601 3.69019 29.4601 2.27923 28.5906 1.40971C27.721 0.540188 26.3101 0.540188 25.4406 1.40971L15.0003 11.85L4.55995 1.40971C3.69043 0.540188 2.27947 0.540188 1.40995 1.40971C0.540432 2.27923 0.540432 3.69019 1.40995 4.55971L11.8503 15L1.40995 25.4403C0.540432 26.3098 0.540432 27.7208 1.40995 28.5903C1.82947 29.0098 2.40019 29.2501 2.96971 29.2501C3.53923 29.2501 4.10995 29.0403 4.52947 28.5903L15.0001 18.15L25.4404 28.5903C25.8599 29.0098 26.4306 29.2501 27.0001 29.2501C27.5697 29.2501 28.1404 29.0403 28.5599 28.5903C29.4294 27.7208 29.4294 26.3098 28.5599 25.4403L18.1503 15Z" fill="#025157"/>
</svg>
