<svg width="35" height="34" viewBox="0 0 35 34" fill="none" xmlns="http://www.w3.org/2000/svg">
<path fill-rule="evenodd" clip-rule="evenodd" d="M13.2717 10.8353L14.0055 6.10877C14.6908 6.90079 15.3456 7.73336 15.9666 8.60559C17.6712 10.9997 19.0173 13.5481 20.0162 16.1837C20.0944 16.3905 20.3587 16.4345 20.4952 16.2622L20.9275 15.7179C21.1525 15.4345 21.2302 15.055 21.127 14.7059C20.5423 12.7235 19.7774 10.7763 18.8411 8.88458C18.8416 8.88194 18.8416 8.87973 18.8416 8.87709C19.5192 7.90569 20.2382 6.98233 20.9944 6.10877L21.7277 10.8353C21.7519 10.9913 21.8953 11.0976 22.0482 11.0729L26.6796 10.3241C26.1531 11.2342 25.5796 12.1271 24.9586 12.9994C23.2544 15.3931 21.2959 17.487 19.1486 19.2707C18.9802 19.4109 19.0208 19.6815 19.2238 19.7613L19.8638 20.012C20.1972 20.143 20.5751 20.1011 20.8683 19.893C22.5353 18.7127 24.1134 17.3689 25.5874 15.8757C25.5895 15.8752 25.5917 15.8748 25.5943 15.8739C26.5111 16.1679 27.4064 16.4989 28.2784 16.8656C28.5008 16.959 28.5107 17.2786 28.2961 17.3896L24.661 19.28C24.5232 19.3518 24.4684 19.5237 24.5388 19.6643L26.6675 23.9285C25.6569 23.6989 24.6476 23.4177 23.6431 23.0849C20.8852 22.1704 18.3285 20.9165 16.0029 19.3835C15.8206 19.2632 15.5805 19.3866 15.5693 19.6079L15.533 20.3065C15.5144 20.671 15.6699 21.0244 15.9545 21.2453C17.5697 22.4983 19.3097 23.6147 21.1564 24.5834C21.1581 24.5857 21.159 24.5874 21.1607 24.5901C21.1719 25.7823 21.1223 26.9604 21.0134 28.1209L17.6975 24.7368C17.5887 24.6253 17.4112 24.6253 17.3019 24.7368L13.986 28.1209C13.888 27.0688 13.8375 26.0026 13.8375 24.9241C13.8375 21.9654 14.2158 19.0962 14.9258 16.3653C14.9815 16.1507 14.7928 15.9563 14.5829 16.0136L13.9204 16.1943C13.5753 16.2886 13.2942 16.5491 13.1763 16.8933C12.5073 18.8485 12.005 20.8821 11.6725 22.9743C11.6708 22.9765 11.6695 22.9778 11.6678 22.98C10.5604 23.3595 9.44707 23.6751 8.33241 23.9285L10.4611 19.6643C10.5311 19.5237 10.4762 19.3518 10.3385 19.28L6.16053 17.1075C7.11022 16.6871 8.08841 16.3089 9.09337 15.9757C11.8513 15.0612 14.642 14.5415 17.4069 14.3873C17.6237 14.3749 17.7463 14.1321 17.628 13.9461L17.2544 13.3586C17.0597 13.0523 16.7301 12.8597 16.373 12.8522C14.3445 12.8072 12.294 12.9478 10.2417 13.2717C10.2391 13.2709 10.2374 13.27 10.2348 13.2691C9.53863 12.3114 8.90075 11.3281 8.32032 10.3241L12.9517 11.0729C13.1046 11.0976 13.2475 10.9913 13.2717 10.8353ZM7.52314 13.8096C6.57864 14.0374 5.63543 14.3014 4.69611 14.613C3.12108 15.1353 1.60651 15.7603 0.157581 16.4778C-0.0518764 16.5818 -0.0523083 16.8877 0.15499 16.9952L7.05283 20.582L3.53783 27.622C3.43246 27.8332 3.60909 28.0808 3.83798 28.039C5.42381 27.7503 7.00878 27.3474 8.58424 26.8247C9.52356 26.5136 10.4387 26.1614 11.334 25.7788C11.2541 26.7661 11.2092 27.7631 11.2092 28.7711C11.2092 30.4613 11.3232 32.1247 11.5443 33.7528C11.5762 33.9877 11.8613 34.0829 12.0258 33.915L17.4998 28.3285L22.9737 33.915C23.1387 34.0829 23.4233 33.9881 23.4553 33.7528C23.6764 32.1247 23.7908 30.4613 23.7908 28.7711C23.7908 27.7631 23.7455 26.7661 23.6656 25.7793C24.5609 26.1614 25.4764 26.5136 26.4153 26.8247C27.9908 27.3474 29.5758 27.7503 31.1616 28.039C31.3909 28.0808 31.5675 27.8332 31.4617 27.622L27.9472 20.582L34.845 16.9952C35.0523 16.8877 35.0519 16.5818 34.8424 16.4778C33.3935 15.7603 31.8785 15.1353 30.3035 14.613C29.3641 14.3014 28.4209 14.0374 27.4769 13.81C28.1096 13.0594 28.7202 12.2797 29.3011 11.4639C30.2745 10.0963 31.14 8.68237 31.8988 7.23276C32.0085 7.02341 31.8327 6.77527 31.603 6.81274L23.9567 8.04858L22.7457 0.245206C22.709 0.0107296 22.424 -0.0835896 22.2625 0.0874192C21.1461 1.27214 20.0958 2.54898 19.1219 3.91661C18.5415 4.73198 18.0038 5.56631 17.4998 6.4121C16.9958 5.56631 16.4581 4.73198 15.8777 3.91661C14.9042 2.54898 13.8539 1.27214 12.7371 0.0874192C12.576 -0.0835896 12.2906 0.0107296 12.2543 0.245206L11.0433 8.04858L3.39704 6.81274C3.16729 6.77527 2.99109 7.02341 3.10078 7.23276C3.85958 8.68237 4.72505 10.0963 5.69892 11.4639C6.27935 12.2797 6.89045 13.059 7.52314 13.8096V13.8096Z" fill="#6ABF4B"/>
</svg>
