<svg width="74" height="69" viewBox="0 0 74 69" fill="none" xmlns="http://www.w3.org/2000/svg">
<path fill-rule="evenodd" clip-rule="evenodd" d="M27.824 21.9895L29.3623 12.3974C30.7992 14.0047 32.1718 15.6943 33.4738 17.4645C37.0474 22.3231 39.8696 27.4948 41.9638 32.8437C42.1277 33.2632 42.6818 33.3526 42.9679 33.0029L43.8743 31.8982C44.346 31.3231 44.5089 30.553 44.2926 29.8446C43.0666 25.8213 41.4631 21.8696 39.5002 18.0306C39.5011 18.0253 39.5011 18.0208 39.5011 18.0154C40.9217 16.0441 42.4292 14.1702 44.0146 12.3974L45.552 21.9895C45.6027 22.3061 45.9033 22.5217 46.2238 22.4716L55.9334 20.9519C54.8297 22.799 53.6274 24.6111 52.3254 26.3812C48.7526 31.239 44.6466 35.4886 40.1449 39.1084C39.7917 39.3928 39.8769 39.942 40.3024 40.1039L41.6442 40.6129C42.3432 40.8785 43.1354 40.7935 43.7502 40.3714C47.2451 37.976 50.5535 35.2488 53.6437 32.2184C53.6482 32.2175 53.6527 32.2166 53.6581 32.2149C55.5803 32.8115 57.4572 33.4832 59.2853 34.2274C59.7516 34.417 59.7724 35.0655 59.3224 35.2909L51.7015 39.1272C51.4127 39.273 51.2977 39.6218 51.4453 39.9071L55.9081 48.561C53.7894 48.095 51.6735 47.5243 49.5675 46.849C43.7855 44.993 38.4255 42.4483 33.5498 39.3374C33.1678 39.0932 32.6643 39.3436 32.6408 39.7927L32.5647 41.2104C32.5258 41.9501 32.8518 42.6674 33.4484 43.1155C36.8347 45.6585 40.4826 47.9241 44.3541 49.8901C44.3577 49.8946 44.3596 49.8982 44.3632 49.9035C44.3867 52.323 44.2826 54.7139 44.0544 57.069L37.1027 50.2014C36.8745 49.9751 36.5024 49.9751 36.2733 50.2014L29.3216 57.069C29.116 54.9339 29.0101 52.7702 29.0101 50.5815C29.0101 44.5771 29.8032 38.7542 31.2917 33.2122C31.4085 32.7766 31.0129 32.3821 30.5728 32.4984L29.1839 32.8651C28.4605 33.0565 27.8711 33.5852 27.6239 34.2837C26.2214 38.2515 25.1684 42.3785 24.4713 46.6245C24.4676 46.6289 24.4649 46.6316 24.4613 46.6361C22.1398 47.4062 19.8057 48.0466 17.4688 48.561L21.9316 39.9071C22.0783 39.6218 21.9633 39.273 21.6744 39.1272L12.9155 34.7184C14.9065 33.8651 16.9573 33.0977 19.0641 32.4215C24.8461 30.5655 30.6969 29.5109 36.4933 29.1979C36.9478 29.1728 37.205 28.68 36.9569 28.3025L36.1737 27.1102C35.7654 26.4886 35.0746 26.0977 34.3258 26.0825C30.0731 25.9913 25.7742 26.2766 21.4716 26.934C21.4662 26.9322 21.4626 26.9304 21.4572 26.9286C19.9976 24.985 18.6603 22.9895 17.4435 20.9519L27.1531 22.4716C27.4736 22.5217 27.7733 22.3061 27.824 21.9895ZM15.7722 28.0253C13.792 28.4877 11.8146 29.0235 9.84534 29.6558C6.54331 30.7158 3.36803 31.9841 0.330367 33.4403C-0.108758 33.6514 -0.109664 34.2721 0.324934 34.4904L14.7862 41.7694L7.41703 56.0565C7.19611 56.4849 7.56642 56.9876 8.04629 56.9026C11.371 56.3168 14.6938 55.4992 17.9968 54.4384C19.966 53.8069 21.8846 53.0923 23.7615 52.3159C23.594 54.3195 23.4999 56.3427 23.4999 58.3883C23.4999 61.8185 23.7389 65.1942 24.2025 68.4983C24.2695 68.975 24.867 69.1682 25.212 68.8275L36.6881 57.4903L48.1642 68.8275C48.5101 69.1682 49.1067 68.9759 49.1737 68.4983C49.6373 65.1942 49.8772 61.8185 49.8772 58.3883C49.8772 56.3427 49.7822 54.3195 49.6147 52.3168C51.4916 53.0923 53.4111 53.8069 55.3794 54.4384C58.6824 55.4992 62.0052 56.3168 65.3299 56.9026C65.8107 56.9876 66.181 56.4849 65.9592 56.0565L58.5909 41.7694L73.0522 34.4904C73.4868 34.2721 73.4859 33.6514 73.0468 33.4403C70.0091 31.9841 66.8329 30.7158 63.5309 29.6558C61.5616 29.0235 59.5842 28.4877 57.6049 28.0262C58.9314 26.5029 60.2116 24.9206 61.4294 23.265C63.4702 20.4895 65.2847 17.6201 66.8755 14.6783C67.1054 14.2534 66.7369 13.7498 66.2552 13.8258L50.2249 16.3339L47.6861 0.497623C47.6092 0.0217749 47.0116 -0.169638 46.673 0.177409C44.3325 2.5817 42.1305 5.17292 40.0888 7.9484C38.872 9.60314 37.7447 11.2963 36.6881 13.0128C35.6315 11.2963 34.5042 9.60314 33.2874 7.9484C31.2466 5.17292 29.0446 2.5817 26.7032 0.177409C26.3655 -0.169638 25.767 0.0217749 25.691 0.497623L23.1522 16.3339L7.12186 13.8258C6.64019 13.7498 6.27078 14.2534 6.50075 14.6783C8.09156 17.6201 9.90601 20.4895 11.9477 23.265C13.1646 24.9206 14.4457 26.502 15.7722 28.0253Z" fill="#6ABF4B"/>
</svg>
