<svg width="63" height="59" viewBox="0 0 63 59" fill="none" xmlns="http://www.w3.org/2000/svg">
<path d="M59.4812 32.0733C58.4084 31.417 56.9074 31.3493 55.6994 31.432C55.7351 31.1339 55.7759 30.8358 55.8013 30.5353L55.8956 29.3479L5.13976 29.3504L5.23405 30.5378C5.90679 38.9415 11.0214 46.6116 18.5902 50.5848V52.7816H0V54.981H10.7467L13.267 58.6958H48.4982L51.0185 54.981H61.7652L61.7626 52.7816H42.4437V50.5848C45.2163 49.1295 47.6551 47.1731 49.6734 44.8711C50.7259 45.2243 52.525 45.7954 53.4883 45.9156C53.8909 45.9632 54.4949 46.0383 55.2084 46.0383C57.3618 46.0383 60.5167 45.3645 62.1145 41.3016C63.7149 37.2386 62.8306 34.1348 59.482 32.0732L59.4812 32.0733ZM47.2973 56.4963H14.4643L13.4348 54.9808H48.3267L47.2973 56.4963ZM41.2883 48.696C40.6181 49.0392 40.2027 49.7154 40.2027 50.4594V52.779H20.8276V50.4594C20.8276 49.7205 20.4148 49.0467 19.7472 48.6985C13.1444 45.2743 8.57254 38.7788 7.59397 31.5499H53.4413C52.4602 38.7769 47.8885 45.2716 41.2881 48.6959L41.2883 48.696ZM60.0266 40.5071C58.7066 43.8662 56.12 44.019 53.7678 43.7309C53.3066 43.6733 52.328 43.4103 51.1328 43.0295C53.1537 40.239 54.6088 37.0553 55.3351 33.6761C56.622 33.5283 57.7764 33.6235 58.2937 33.9391C60.6994 35.417 61.2345 37.4435 60.0266 40.5069L60.0266 40.5071Z" fill="black"/>
<path d="M11.3799 34.0679C11.4365 34.2809 12.8253 39.2921 15.6946 41.9255L17.3692 40.3872C14.9692 38.1826 13.691 33.5848 13.6774 33.5404L11.3799 34.0679Z" fill="#3E3E3E"/>
<path d="M18.2326 42.8611C18.0644 43.0868 17.968 43.3951 17.968 43.7117C17.968 44.0366 18.0665 44.3476 18.2326 44.5734C18.4008 44.7964 18.6306 44.9203 18.8664 44.9203C19.1023 44.9203 19.3341 44.7964 19.5002 44.5734C19.6684 44.3477 19.7648 44.0311 19.7648 43.7117C19.7648 43.3951 19.6725 43.0841 19.5043 42.8611C19.1741 42.4124 18.569 42.4124 18.2326 42.8611H18.2326Z" fill="#3E3E3E"/>
<path d="M42.0866 8.94522L42.5246 7.18726L40.7259 7.58132C37.5431 8.28245 33.9065 9.25484 31.0416 11.9826C29.5662 13.3874 28.7112 15.4909 28.7503 17.6122C28.7868 19.5775 29.5845 21.4071 30.9947 22.8324C30.8331 23.7919 30.7367 24.7772 30.708 25.7981C30.6923 26.4174 31.1902 26.9343 31.8237 26.9522H31.855C32.4728 26.9522 32.9811 26.4685 32.9993 25.8569C33.101 22.121 34.201 18.8738 36.3672 15.9339C36.7374 15.4323 36.6227 14.7287 36.1092 14.3653C35.5956 13.9994 34.8814 14.1145 34.5113 14.616C33.2574 16.3177 32.3268 18.1115 31.6933 20.023C31.2033 19.1274 31.0573 18.2497 31.0417 17.569C31.013 16.0592 31.6073 14.5751 32.637 13.5951C34.4539 11.8678 36.7035 10.9185 39.4511 10.1968C39.3911 10.4706 39.3416 10.724 39.3025 10.9338C38.9844 12.7097 39.1721 14.4472 39.3755 15.9339C39.7169 18.4595 38.8228 19.959 36.4715 20.7907C35.8772 21.0005 35.5696 21.6453 35.7834 22.2313C35.9971 22.8147 36.654 23.1167 37.2483 22.9043C40.6058 21.7118 42.1256 19.199 41.6433 15.6369C41.466 14.3139 41.2966 12.7811 41.5573 11.32C41.6563 10.7596 41.904 9.67724 42.0865 8.94539L42.0866 8.94522Z" fill="#0D6C54"/>
<path d="M9.88244 0.862077L9.14981 0C8.99599 0.12535 5.39038 3.11832 5.39038 7.24422C5.39038 9.71277 6.6548 11.9997 9.14981 14.0385C11.0921 15.6271 12.0802 17.3257 12.0854 19.0908C12.0932 22.1605 9.17844 24.6035 9.14981 24.6265L10.615 26.3532C10.7688 26.2253 14.3744 23.2323 14.3744 19.1037C14.3744 16.6377 13.11 14.3508 10.615 12.312C8.67267 10.7234 7.68463 9.02234 7.67942 7.25719C7.6716 4.18746 10.5864 1.74701 10.6176 1.72147L9.88244 0.862077Z" fill="#A1D683"/>
<path d="M27.5497 10.4711C27.5896 8.34297 26.7693 6.23026 25.358 4.81922C22.6178 2.07933 19.1395 1.10012 16.0949 0.398387L14.3745 0L14.7909 1.76575C14.9654 2.50342 15.2023 3.59316 15.2996 4.15606C15.5489 5.62369 15.3868 7.16323 15.2173 8.49202C14.756 12.0698 16.2096 14.5937 19.4211 15.7916C19.9896 16.0024 20.6179 15.6991 20.8224 15.1131C21.0268 14.5272 20.7351 13.8794 20.1641 13.6687C17.9151 12.8308 17.0599 11.3272 17.3865 8.78778C17.5785 7.29193 17.758 5.5467 17.4563 3.76555C17.4214 3.55736 17.3715 3.30034 17.3142 3.02532C19.9447 3.75016 22.0965 4.7037 23.8345 6.4386C24.8169 7.42043 25.3879 8.91372 25.3604 10.4302C25.3479 11.1627 25.1809 12.1188 24.6274 13.08C24.1636 11.3811 23.3508 9.54597 22.0043 7.64145C21.6478 7.13769 20.9646 7.02716 20.4759 7.39471C19.9872 7.76225 19.88 8.46649 20.2365 8.97024C25.0437 15.7711 22.0517 21.4357 21.9245 21.6699C21.6228 22.2097 21.8049 22.901 22.3285 23.2094C22.5005 23.3123 22.6875 23.3585 22.872 23.3585C23.251 23.3585 23.62 23.1555 23.822 22.7931C23.9217 22.6157 25.3704 19.9272 25.1211 16.0053C26.647 14.5352 27.5098 12.5792 27.5496 10.4716L27.5497 10.4711Z" fill="#0D6C54"/>
<path d="M49.4122 0.862077L48.6796 0C48.5258 0.12535 44.9228 3.11832 44.9202 7.24422C44.9202 9.71277 46.1846 11.9997 48.6796 14.0385C50.6219 15.6271 51.61 17.3257 51.6152 19.0908C51.623 22.1605 48.7082 24.6035 48.6796 24.6265L50.1448 26.3532C50.2986 26.2253 53.9042 23.2323 53.9042 19.1037C53.9042 16.6377 52.6398 14.3508 50.1448 12.312C48.2025 10.7234 47.2144 9.02234 47.2092 7.25719C47.2014 4.18746 50.1161 1.74701 50.1474 1.72147L49.4122 0.862077Z" fill="#A1D683"/>
</svg>
