<svg width="121" height="107" viewBox="0 0 121 107" fill="none" xmlns="http://www.w3.org/2000/svg">
<path fill-rule="evenodd" clip-rule="evenodd" d="M23.0005 105.933C22.7435 105.933 22.5355 105.728 22.5355 105.476V95.6759C22.5355 92.2815 21.5444 91.2698 19.453 91.2698C17.3604 91.2698 16.3329 92.2815 16.3329 95.5677V105.476C16.3329 105.728 16.1249 105.933 15.8678 105.933H11.7328C11.4764 105.933 11.2684 105.728 11.2684 105.476V95.6759C11.2684 92.2815 10.2767 91.2698 8.18466 91.2698C6.09262 91.2698 5.06514 92.2815 5.06514 95.5677V105.476C5.06514 105.728 4.85713 105.933 4.60073 105.933H0.465038C0.20801 105.933 0 105.728 0 105.476V87.4716C0 87.1958 0.227491 86.9726 0.507771 86.9726H4.55737C4.83828 86.9726 5.06514 87.1958 5.06514 87.4716V88.2366C5.9462 87.3331 7.26716 86.575 9.28567 86.575C11.7447 86.575 13.1763 87.2608 14.6078 88.9947C15.9294 87.6584 17.5439 86.575 20.7369 86.575C25.655 86.575 27.6 89.8976 27.6 95.243V105.476C27.6 105.728 27.392 105.933 27.135 105.933H23.0005Z" fill="white"/>
<path fill-rule="evenodd" clip-rule="evenodd" d="M42.566 97.7584C41.677 97.2273 40.8266 96.9793 39.0131 96.9793C37.0887 96.9793 36.0526 97.8293 36.0526 99.3166C36.0526 100.627 36.8295 101.795 39.0131 101.795C40.6783 101.795 42.0109 100.981 42.566 100.096V97.7584ZM43.0349 105.544C42.7757 105.544 42.566 105.343 42.566 105.096V104.305C41.6402 105.225 40.0124 105.933 38.1988 105.933C34.5718 105.933 30.9454 103.81 30.9454 99.3154C30.9454 95.21 34.4241 93.157 38.8281 93.157C40.6048 93.157 41.7518 93.5115 42.566 93.9005V92.98C42.566 91.6711 41.6402 90.6089 39.79 90.6089C37.6412 90.6089 36.4354 90.8797 34.869 91.6427C34.6421 91.7529 34.3627 91.6778 34.2398 91.4645L32.7259 88.8425C32.6011 88.6255 32.6848 88.348 32.9116 88.2292C34.9938 87.1361 36.8377 86.575 39.79 86.575C44.4898 86.575 47.6726 88.9104 47.6726 93.0867V105.096C47.6726 105.343 47.4629 105.544 47.2044 105.544H43.0349Z" fill="white"/>
<path fill-rule="evenodd" clip-rule="evenodd" d="M63.0269 104.797C60.964 106.42 59.3561 106.775 57.8323 106.775C54.6681 106.775 52.6211 104.347 52.6211 100.964V91.435H49.817C49.557 91.435 49.3454 91.2266 49.3454 90.969V87.5283C49.3454 87.2713 49.557 87.0629 49.817 87.0629H52.6211V84.9137C52.6211 84.4842 52.8117 84.0761 53.1418 83.7984L56.6508 80.8432C57.086 80.4761 57.7571 80.7821 57.7571 81.3476V87.0629H63.213C63.4666 87.0629 63.6361 87.3204 63.5329 87.5497L61.9193 91.1365C61.8377 91.3179 61.6554 91.435 61.454 91.435H57.7571V99.6125C57.7571 101.451 58.4275 101.93 59.6556 101.93C60.1833 101.93 60.6389 101.8 61.1653 101.493C61.4043 101.354 61.7141 101.444 61.8326 101.692L63.169 104.187C63.2691 104.397 63.2098 104.653 63.0269 104.797Z" fill="white"/>
<path fill-rule="evenodd" clip-rule="evenodd" d="M73.4113 105.933C68.3929 105.933 64.4 101.97 64.4 96.2717C64.4 90.5737 68.2825 86.575 73.6308 86.575C77.1332 86.575 79.4301 88.1602 81.0333 90.3719C81.1613 90.5483 81.1362 90.7913 80.9794 90.9446L78.2008 93.6587C78.0515 93.8042 77.805 93.7823 77.6783 93.6181C76.6089 92.2317 75.4297 91.2815 73.5211 91.2815C71.1031 91.2815 69.5282 93.2285 69.5282 96.2717C69.5282 99.2445 71.1031 101.227 73.5211 101.227C75.3808 101.227 76.5932 100.476 77.8276 99.1209C77.9568 98.9791 78.182 98.9628 78.3243 99.093L80.9806 101.513C81.1544 101.672 81.1776 101.935 81.0295 102.117C79.215 104.353 77.0473 105.933 73.4113 105.933Z" fill="white"/>
<path fill-rule="evenodd" clip-rule="evenodd" d="M96.5922 105.933C96.3347 105.933 96.1263 105.725 96.1263 105.47V95.5393C96.1263 92.0998 94.9505 91.0746 92.8543 91.0746C90.7594 91.0746 89.5464 92.0998 89.5464 95.4297V105.47C89.5464 105.725 89.338 105.933 89.0805 105.933H84.9379C84.6811 105.933 84.4727 105.725 84.4727 105.47V83.2098C84.4727 82.7824 84.6603 82.377 84.987 82.0994L88.4529 79.1586C88.8835 78.7939 89.5464 79.0985 89.5464 79.6612V88.001C90.4283 87.0855 92.0454 86.3172 94.0679 86.3172C98.9943 86.3172 101.2 89.6841 101.2 95.1007V105.47C101.2 105.725 100.991 105.933 100.734 105.933H96.5922Z" fill="white"/>
<path fill-rule="evenodd" clip-rule="evenodd" d="M115.329 97.7585C114.441 97.2274 113.59 96.9794 111.776 96.9794C109.852 96.9794 108.815 97.8294 108.815 99.3166C108.815 100.627 109.593 101.795 111.776 101.795C113.442 101.795 114.774 100.981 115.329 100.096V97.7585ZM115.797 105.544C115.539 105.544 115.329 105.343 115.329 105.096V104.305C114.403 105.225 112.776 105.933 110.963 105.933C107.336 105.933 103.709 103.81 103.709 99.3154C103.709 95.21 107.188 93.157 111.591 93.157C113.367 93.157 114.515 93.5115 115.329 93.9005V92.98C115.329 91.6711 114.403 90.6089 112.553 90.6089C110.405 90.6089 109.199 90.8797 107.633 91.6427C107.406 91.7529 107.127 91.6778 107.004 91.4645L105.489 88.8425C105.365 88.6255 105.448 88.348 105.675 88.2292C107.757 87.1361 109.601 86.575 112.553 86.575C117.254 86.575 120.436 88.9104 120.436 93.0867V105.096C120.436 105.343 120.227 105.544 119.967 105.544H115.797Z" fill="white"/>
<path fill-rule="evenodd" clip-rule="evenodd" d="M51.824 21.9895L53.3623 12.3974C54.7992 14.0047 56.1718 15.6943 57.4738 17.4645C61.0474 22.3231 63.8696 27.4948 65.9638 32.8437C66.1277 33.2632 66.6818 33.3526 66.9679 33.0029L67.8743 31.8982C68.346 31.3231 68.5089 30.553 68.2926 29.8446C67.0666 25.8213 65.4631 21.8696 63.5002 18.0306C63.5011 18.0253 63.5011 18.0208 63.5011 18.0154C64.9217 16.0441 66.4292 14.1702 68.0146 12.3974L69.552 21.9895C69.6027 22.3061 69.9033 22.5217 70.2238 22.4716L79.9334 20.9519C78.8297 22.799 77.6274 24.6111 76.3254 26.3812C72.7526 31.239 68.6466 35.4886 64.1449 39.1084C63.7917 39.3928 63.8769 39.942 64.3024 40.1039L65.6442 40.6129C66.3432 40.8785 67.1354 40.7935 67.7502 40.3714C71.2451 37.976 74.5535 35.2488 77.6437 32.2184C77.6482 32.2175 77.6527 32.2166 77.6581 32.2149C79.5803 32.8115 81.4572 33.4832 83.2853 34.2274C83.7516 34.417 83.7724 35.0655 83.3224 35.2909L75.7015 39.1272C75.4127 39.273 75.2977 39.6218 75.4453 39.9071L79.9081 48.561C77.7894 48.095 75.6735 47.5243 73.5675 46.849C67.7855 44.993 62.4255 42.4483 57.5498 39.3374C57.1678 39.0932 56.6643 39.3436 56.6408 39.7927L56.5647 41.2104C56.5258 41.9501 56.8518 42.6674 57.4484 43.1155C60.8347 45.6585 64.4826 47.9241 68.3541 49.8901C68.3577 49.8946 68.3596 49.8982 68.3632 49.9035C68.3867 52.323 68.2826 54.7139 68.0544 57.069L61.1027 50.2014C60.8745 49.9751 60.5024 49.9751 60.2733 50.2014L53.3216 57.069C53.116 54.9339 53.0101 52.7702 53.0101 50.5815C53.0101 44.5771 53.8032 38.7542 55.2917 33.2122C55.4085 32.7766 55.0129 32.3821 54.5728 32.4984L53.1839 32.8651C52.4605 33.0565 51.8711 33.5852 51.6239 34.2837C50.2214 38.2515 49.1684 42.3785 48.4713 46.6245C48.4676 46.6289 48.4649 46.6316 48.4613 46.6361C46.1398 47.4062 43.8057 48.0466 41.4688 48.561L45.9316 39.9071C46.0783 39.6218 45.9633 39.273 45.6744 39.1272L36.9155 34.7184C38.9065 33.8651 40.9573 33.0977 43.0641 32.4215C48.8461 30.5655 54.6969 29.5109 60.4933 29.1979C60.9478 29.1728 61.205 28.68 60.9569 28.3025L60.1737 27.1102C59.7654 26.4886 59.0746 26.0977 58.3258 26.0825C54.0731 25.9913 49.7742 26.2766 45.4716 26.934C45.4662 26.9322 45.4626 26.9304 45.4572 26.9286C43.9976 24.985 42.6603 22.9895 41.4435 20.9519L51.1531 22.4716C51.4736 22.5217 51.7733 22.3061 51.824 21.9895ZM39.7722 28.0253C37.792 28.4877 35.8146 29.0235 33.8453 29.6558C30.5433 30.7158 27.368 31.9841 24.3304 33.4403C23.8912 33.6514 23.8903 34.2721 24.3249 34.4904L38.7862 41.7694L31.417 56.0565C31.1961 56.4849 31.5664 56.9876 32.0463 56.9026C35.371 56.3168 38.6938 55.4992 41.9968 54.4384C43.966 53.8069 45.8846 53.0923 47.7615 52.3159C47.594 54.3195 47.4999 56.3427 47.4999 58.3883C47.4999 61.8185 47.7389 65.1942 48.2025 68.4983C48.2695 68.975 48.867 69.1682 49.212 68.8275L60.6881 57.4903L72.1642 68.8275C72.5101 69.1682 73.1067 68.9759 73.1737 68.4983C73.6373 65.1942 73.8772 61.8185 73.8772 58.3883C73.8772 56.3427 73.7822 54.3195 73.6147 52.3168C75.4916 53.0923 77.4111 53.8069 79.3794 54.4384C82.6824 55.4992 86.0052 56.3168 89.3299 56.9026C89.8107 56.9876 90.181 56.4849 89.9592 56.0565L82.5909 41.7694L97.0522 34.4904C97.4868 34.2721 97.4859 33.6514 97.0468 33.4403C94.0091 31.9841 90.8329 30.7158 87.5309 29.6558C85.5616 29.0235 83.5842 28.4877 81.6049 28.0262C82.9314 26.5029 84.2116 24.9206 85.4294 23.265C87.4702 20.4895 89.2847 17.6201 90.8755 14.6783C91.1054 14.2534 90.7369 13.7498 90.2552 13.8258L74.2249 16.3339L71.6861 0.497623C71.6092 0.0217749 71.0116 -0.169638 70.673 0.177409C68.3325 2.5817 66.1305 5.17292 64.0888 7.9484C62.872 9.60314 61.7447 11.2963 60.6881 13.0128C59.6315 11.2963 58.5042 9.60314 57.2874 7.9484C55.2466 5.17292 53.0446 2.5817 50.7032 0.177409C50.3655 -0.169638 49.767 0.0217749 49.691 0.497623L47.1522 16.3339L31.1219 13.8258C30.6402 13.7498 30.2708 14.2534 30.5008 14.6783C32.0916 17.6201 33.906 20.4895 35.9477 23.265C37.1646 24.9206 38.4457 26.502 39.7722 28.0253Z" fill="#6ABF4B"/>
</svg>
