<svg width="119" height="36" viewBox="0 0 119 36" fill="none" xmlns="http://www.w3.org/2000/svg">
<path fill-rule="evenodd" clip-rule="evenodd" d="M14.1041 12.1131L14.8838 7.25169C15.612 8.06631 16.3077 8.92263 16.9675 9.81974C18.7787 12.2822 20.209 14.9033 21.2704 17.6141C21.3534 17.8267 21.6343 17.872 21.7793 17.6948L22.2386 17.1349C22.4777 16.8435 22.5603 16.4531 22.4506 16.0941C21.8293 14.0551 21.0166 12.0523 20.0218 10.1067C20.0222 10.104 20.0222 10.1017 20.0222 10.099C20.7422 9.09987 21.5062 8.15017 22.3097 7.25169L23.0889 12.1131C23.1146 12.2736 23.2669 12.3828 23.4294 12.3574L28.3503 11.5872C27.791 12.5233 27.1816 13.4418 26.5217 14.3389C24.711 16.8008 22.63 18.9546 20.3485 20.7891C20.1695 20.9333 20.2127 21.2116 20.4283 21.2937L21.1084 21.5516C21.4626 21.6863 21.8642 21.6432 22.1757 21.4292C23.947 20.2152 25.6237 18.8331 27.1898 17.2972C27.1921 17.2968 27.1944 17.2963 27.1972 17.2954C28.1714 17.5978 29.1226 17.9382 30.0491 18.3154C30.2854 18.4115 30.2959 18.7401 30.0679 18.8544L26.2056 20.7987C26.0592 20.8725 26.0009 21.0493 26.0757 21.194L28.3375 25.5798C27.2637 25.3436 26.1913 25.0544 25.124 24.7122C22.1936 23.7715 19.4771 22.4818 17.0061 20.9052C16.8124 20.7814 16.5573 20.9084 16.5454 21.1359L16.5068 21.8544C16.4871 22.2293 16.6523 22.5929 16.9547 22.82C18.6709 24.1088 20.5197 25.257 22.4818 26.2534C22.4836 26.2557 22.4845 26.2575 22.4864 26.2602C22.4983 27.4865 22.4455 28.6982 22.3299 29.8918L18.8067 26.4112C18.691 26.2965 18.5024 26.2965 18.3864 26.4112L14.8631 29.8918C14.759 28.8097 14.7053 27.7131 14.7053 26.6038C14.7053 23.5607 15.1072 20.6096 15.8616 17.8009C15.9208 17.5801 15.7203 17.3802 15.4973 17.4391L14.7934 17.625C14.4267 17.722 14.128 17.9899 14.0027 18.3439C13.2919 20.3549 12.7583 22.4465 12.4049 24.5984C12.4031 24.6006 12.4017 24.602 12.3999 24.6043C11.2233 24.9946 10.0404 25.3191 8.85601 25.5798L11.1178 21.194C11.1921 21.0493 11.1339 20.8725 10.9875 20.7987L6.54834 18.5643C7.5574 18.1318 8.59675 17.7428 9.66455 17.4001C12.5949 16.4595 15.5602 15.925 18.4979 15.7664C18.7282 15.7537 18.8585 15.5039 18.7328 15.3126L18.3359 14.7083C18.1289 14.3933 17.7788 14.1952 17.3993 14.1875C15.244 14.1412 13.0653 14.2858 10.8847 14.619C10.8819 14.6181 10.8801 14.6172 10.8773 14.6163C10.1376 13.6312 9.45989 12.6199 8.84316 11.5872L13.7641 12.3574C13.9266 12.3828 14.0785 12.2736 14.1041 12.1131ZM7.99351 15.1721C6.98996 15.4064 5.98778 15.678 4.98973 15.9985C3.31622 16.5356 1.70695 17.1785 0.167434 17.9165C-0.0551199 18.0234 -0.0555788 18.338 0.16468 18.4487L7.4938 22.1378L3.75903 29.3786C3.64707 29.5958 3.83475 29.8505 4.07795 29.8075C5.76293 29.5105 7.447 29.0962 9.12097 28.5586C10.119 28.2385 11.0914 27.8763 12.0426 27.4828C11.9577 28.4983 11.91 29.5237 11.91 30.5604C11.91 32.2989 12.0311 34.0097 12.2661 35.6843C12.3 35.9259 12.6029 36.0238 12.7777 35.8511L18.5939 30.1053L24.4102 35.8511C24.5854 36.0238 24.8878 35.9263 24.9218 35.6843C25.1567 34.0097 25.2783 32.2989 25.2783 30.5604C25.2783 29.5237 25.2302 28.4983 25.1453 27.4833C26.0965 27.8763 27.0693 28.2385 28.0669 28.5586C29.7409 29.0962 31.4249 29.5105 33.1099 29.8075C33.3536 29.8505 33.5413 29.5958 33.4288 29.3786L29.6945 22.1378L37.0237 18.4487C37.2439 18.338 37.2435 18.0234 37.0209 17.9165C35.4814 17.1785 33.8717 16.5356 32.1982 15.9985C31.2001 15.678 30.1979 15.4064 29.1948 15.1725C29.8671 14.4005 30.5159 13.5986 31.1331 12.7595C32.1674 11.3529 33.087 9.89861 33.8932 8.40765C34.0098 8.19232 33.823 7.9371 33.5789 7.97564L25.4546 9.24674L24.1679 1.22074C24.1289 0.979572 23.826 0.882562 23.6544 1.05845C22.4682 2.27697 21.3522 3.59023 20.3175 4.99688C19.7007 5.83552 19.1294 6.69365 18.5939 7.56357C18.0584 6.69365 17.4871 5.83552 16.8704 4.99688C15.8361 3.59023 14.7201 2.27697 13.5335 1.05845C13.3623 0.882562 13.059 0.979572 13.0205 1.22074L11.7338 9.24674L3.60944 7.97564C3.36532 7.9371 3.1781 8.19232 3.29465 8.40765C4.10089 9.89861 5.02048 11.3529 6.05523 12.7595C6.67196 13.5986 7.32127 14.4001 7.99351 15.1721Z" fill="#6ABF4B"/>
<path fill-rule="evenodd" clip-rule="evenodd" d="M57.3859 24.7881C57.225 24.7881 57.0947 24.6596 57.0947 24.5015V18.3643C57.0947 16.2385 56.474 15.6049 55.1642 15.6049C53.8537 15.6049 53.2102 16.2385 53.2102 18.2965V24.5015C53.2102 24.6596 53.0799 24.7881 52.919 24.7881H50.3293C50.1687 24.7881 50.0385 24.6596 50.0385 24.5015V18.3643C50.0385 16.2385 49.4174 15.6049 48.1072 15.6049C46.7971 15.6049 46.1536 16.2385 46.1536 18.2965V24.5015C46.1536 24.6596 46.0233 24.7881 45.8627 24.7881H43.2727C43.1117 24.7881 42.9814 24.6596 42.9814 24.5015V13.2262C42.9814 13.0535 43.1239 12.9137 43.2994 12.9137H45.8356C46.0115 12.9137 46.1536 13.0535 46.1536 13.2262V13.7053C46.7054 13.1395 47.5326 12.6647 48.7968 12.6647C50.3368 12.6647 51.2333 13.0942 52.1299 14.1801C52.9575 13.3432 53.9686 12.6647 55.9683 12.6647C59.0483 12.6647 60.2664 14.7455 60.2664 18.0932V24.5015C60.2664 24.6596 60.1362 24.7881 59.9752 24.7881H57.3859Z" fill="white"/>
<path fill-rule="evenodd" clip-rule="evenodd" d="M69.6401 19.6685C69.0834 19.3359 68.5508 19.1806 67.4151 19.1806C66.2099 19.1806 65.561 19.713 65.561 20.6444C65.561 21.4649 66.0476 22.1966 67.4151 22.1966C68.458 22.1966 69.2925 21.6866 69.6401 21.1323V19.6685ZM69.9316 24.5445C69.7693 24.5445 69.638 24.4185 69.638 24.2637V23.7684C69.0582 24.3449 68.0387 24.7881 66.903 24.7881C64.6315 24.7881 62.3604 23.4584 62.3604 20.6436C62.3604 18.0725 64.539 16.7868 67.297 16.7868C68.4098 16.7868 69.128 17.0088 69.638 17.2524V16.676C69.638 15.8563 69.0582 15.191 67.8994 15.191C66.5537 15.191 65.7986 15.3606 64.8176 15.8384C64.6755 15.9075 64.5005 15.8604 64.4235 15.7269L63.4755 14.0848C63.3973 13.9489 63.4497 13.7751 63.5917 13.7007C64.8958 13.0161 66.0506 12.6647 67.8994 12.6647C70.8428 12.6647 72.8361 14.1273 72.8361 16.7428V24.2637C72.8361 24.4185 72.7047 24.5445 72.5428 24.5445H69.9316Z" fill="white"/>
<path fill-rule="evenodd" clip-rule="evenodd" d="M82.4525 24.0764C81.1606 25.0927 80.1536 25.3152 79.1993 25.3152C77.2177 25.3152 75.9357 23.7949 75.9357 21.6759V15.7083H74.1796C74.0168 15.7083 73.8843 15.5777 73.8843 15.4164V13.2616C73.8843 13.1007 74.0168 12.9702 74.1796 12.9702H75.9357V11.6242C75.9357 11.3552 76.0551 11.0997 76.2618 10.9257L78.4594 9.07495C78.732 8.84503 79.1522 9.03669 79.1522 9.39084V12.9702H82.5691C82.7279 12.9702 82.8341 13.1315 82.7694 13.275L81.7589 15.5213C81.7078 15.6349 81.5936 15.7083 81.4675 15.7083H79.1522V20.8296C79.1522 21.9811 79.5721 22.2809 80.3412 22.2809C80.6717 22.2809 80.957 22.1992 81.2867 22.0072C81.4364 21.92 81.6303 21.9768 81.7046 22.1322L82.5415 23.6947C82.6042 23.826 82.5671 23.9861 82.4525 24.0764Z" fill="white"/>
<path fill-rule="evenodd" clip-rule="evenodd" d="M88.9565 24.7881C85.8136 24.7881 83.313 22.3058 83.313 18.7374C83.313 15.169 85.7445 12.6647 89.094 12.6647C91.2874 12.6647 92.7259 13.6575 93.7299 15.0426C93.81 15.1531 93.7943 15.3052 93.6961 15.4012L91.956 17.101C91.8625 17.1921 91.7081 17.1784 91.6288 17.0756C90.959 16.2073 90.2205 15.6122 89.0252 15.6122C87.5109 15.6122 86.5246 16.8316 86.5246 18.7374C86.5246 20.5992 87.5109 21.8406 89.0252 21.8406C90.1899 21.8406 90.9492 21.3704 91.7222 20.5218C91.8032 20.433 91.9442 20.4228 92.0333 20.5044L93.6969 22.0201C93.8057 22.1195 93.8202 22.2842 93.7275 22.3981C92.5911 23.7984 91.2336 24.7881 88.9565 24.7881Z" fill="white"/>
<path fill-rule="evenodd" clip-rule="evenodd" d="M103.474 24.7882C103.313 24.7882 103.182 24.6579 103.182 24.4977V18.2788C103.182 16.1247 102.446 15.4827 101.133 15.4827C99.8209 15.4827 99.0612 16.1247 99.0612 18.2101V24.4977C99.0612 24.6579 98.9308 24.7882 98.7695 24.7882H96.1751C96.0143 24.7882 95.8838 24.6579 95.8838 24.4977V10.5572C95.8838 10.2895 96.0013 10.0356 96.2059 9.86179L98.3765 8.02008C98.6461 7.79168 99.0612 7.9824 99.0612 8.33481V13.5578C99.6136 12.9844 100.626 12.5033 101.893 12.5033C104.978 12.5033 106.36 14.6119 106.36 18.0041V24.4977C106.36 24.6579 106.229 24.7882 106.068 24.7882H103.474Z" fill="white"/>
<path fill-rule="evenodd" clip-rule="evenodd" d="M115.205 19.6686C114.65 19.3359 114.117 19.1806 112.981 19.1806C111.776 19.1806 111.126 19.713 111.126 20.6444C111.126 21.4649 111.613 22.1966 112.981 22.1966C114.024 22.1966 114.858 21.6867 115.205 21.1323V19.6686ZM115.501 24.5445C115.339 24.5445 115.208 24.4185 115.208 24.2637V23.7684C114.628 24.3449 113.609 24.7881 112.473 24.7881C110.202 24.7881 107.931 23.4584 107.931 20.6436C107.931 18.0725 110.11 16.7868 112.867 16.7868C113.979 16.7868 114.698 17.0088 115.208 17.2524V16.676C115.208 15.8563 114.628 15.191 113.47 15.191C112.124 15.191 111.369 15.3606 110.388 15.8384C110.246 15.9075 110.071 15.8604 109.994 15.7269L109.046 14.0848C108.968 13.9489 109.02 13.7751 109.162 13.7007C110.466 13.0161 111.621 12.6647 113.47 12.6647C116.413 12.6647 118.406 14.1273 118.406 16.7428V24.2637C118.406 24.4185 118.275 24.5445 118.113 24.5445H115.501Z" fill="white"/>
</svg>
